<?xml version="1.0" standalone="no"?>
<!DOCTYPE svg PUBLIC "-//W3C//DTD SVG 20010904//EN"
 "http://www.w3.org/TR/2001/REC-SVG-20010904/DTD/svg10.dtd">
<svg version="1.0" xmlns="http://www.w3.org/2000/svg"
 width="256.000000pt" height="256.000000pt" viewBox="0 0 256.000000 256.000000"
 preserveAspectRatio="xMidYMid meet">

<g transform="translate(0.000000,256.000000) scale(0.100000,-0.100000)"
fill="#000000" stroke="none">
<path d="M220 880 l0 -880 125 0 125 0 0 286 0 287 24 22 c26 24 144 84 191
96 17 4 62 17 100 29 121 35 118 35 174 -3 49 -34 52 -35 128 -30 65 4 86 1
126 -17 l47 -21 0 -324 0 -325 238 0 238 0 37 77 37 78 0 243 0 243 72 79 c39
44 78 81 87 83 9 2 34 -3 56 -11 22 -8 99 -16 172 -19 l131 -6 6 219 c4 121 8
275 11 344 3 81 -1 156 -10 215 -8 50 -15 118 -15 153 l0 62 -1050 0 -1050 0
0 -880z m1699 693 c89 -28 148 -103 158 -197 13 -131 -66 -230 -207 -260 -14
-3 -68 -37 -120 -76 -85 -64 -95 -75 -106 -116 -20 -80 -92 -134 -181 -134
-65 0 -118 33 -157 99 l-31 52 -200 85 c-419 178 -393 169 -429 156 -84 -30
-176 -1 -223 70 -22 33 -28 52 -27 97 0 67 20 110 69 146 94 72 220 42 274
-64 18 -35 32 -42 323 -165 l303 -128 50 11 c47 11 53 16 115 101 36 49 69
102 74 117 28 91 43 119 78 154 67 65 145 82 237 52z"/>
<path d="M1780 1482 c-49 -24 -80 -75 -80 -130 0 -85 59 -144 146 -144 80 0
135 53 142 136 3 41 -1 58 -20 86 -27 40 -79 70 -123 70 -16 0 -46 -8 -65 -18z
m145 -42 c56 -53 49 -145 -14 -187 -42 -28 -86 -29 -129 -3 -72 44 -76 139
-10 195 28 23 39 27 80 23 32 -4 57 -13 73 -28z"/>
<path d="M513 1461 c-74 -46 -83 -140 -19 -198 28 -26 44 -33 73 -32 37 1 38
1 8 8 -71 18 -105 54 -105 114 0 31 7 46 34 73 40 40 83 45 135 13 41 -25 49
-20 17 10 -35 33 -101 38 -143 12z"/>
<path d="M1440 1091 c0 -5 18 -11 39 -15 53 -8 91 -53 91 -108 0 -83 -89 -125
-166 -77 -19 11 -34 16 -34 10 0 -19 63 -51 100 -51 129 0 166 175 50 235 -32
16 -80 20 -80 6z"/>
</g>
</svg>
