<?xml version="1.0" standalone="no"?>
<!DOCTYPE svg PUBLIC "-//W3C//DTD SVG 20010904//EN"
 "http://www.w3.org/TR/2001/REC-SVG-20010904/DTD/svg10.dtd">
<svg version="1.0" xmlns="http://www.w3.org/2000/svg"
 width="1280.000000pt" height="1280.000000pt" viewBox="0 0 1280.000000 1280.000000"
 preserveAspectRatio="xMidYMid meet">
<metadata>
Created by potrace 1.15, written by Peter Selinger 2001-2017
</metadata>
<g transform="translate(0.000000,1280.000000) scale(0.100000,-0.100000)"
fill="#000000" stroke="none">
<path d="M0 9917 l0 -2883 1928 -967 1927 -966 65 45 c213 148 526 254 801
271 l96 6 163 351 c90 193 403 860 695 1481 757 1609 715 1517 715 1557 0 19
-7 81 -16 139 -23 140 -23 473 -1 620 63 416 206 765 449 1095 102 138 341
378 477 478 318 235 648 376 1048 447 168 30 502 37 673 15 286 -38 530 -110
765 -225 714 -352 1197 -1014 1312 -1800 32 -220 22 -554 -23 -781 -111 -556
-435 -1075 -884 -1414 -186 -141 -429 -274 -618 -340 -56 -19 -114 -42 -129
-50 -31 -16 -79 -64 -1865 -1903 -1010 -1039 -1218 -1258 -1222 -1285 -4 -18
-11 -64 -16 -103 -46 -308 -195 -595 -429 -825 -418 -411 -1041 -553 -1607
-365 -102 34 -280 121 -369 181 -343 231 -556 549 -650 971 l-16 72 -62 34
c-82 46 -3192 1607 -3200 1607 -4 0 -7 -1210 -7 -2690 l0 -2690 6400 0 6400 0
0 6400 0 6400 -6400 0 -6400 0 0 -2883z"/>
<path d="M8615 11244 c-312 -31 -525 -89 -765 -209 -878 -441 -1298 -1456
-989 -2390 201 -608 690 -1082 1309 -1268 330 -100 711 -109 1041 -26 679 170
1229 695 1418 1351 204 711 19 1450 -494 1963 -297 297 -693 497 -1109 560
-100 15 -340 26 -411 19z m420 -544 c281 -60 527 -193 730 -395 579 -579 575
-1527 -9 -2100 -219 -215 -496 -355 -791 -401 -133 -20 -387 -15 -505 11 -283
63 -532 199 -734 401 -203 203 -340 461 -403 754 -26 123 -26 460 1 580 66
304 193 539 405 750 214 214 445 341 727 399 138 29 150 30 324 26 108 -3 185
-10 255 -25z"/>
<path d="M4715 5033 c-512 -66 -896 -426 -990 -928 -25 -128 -16 -334 19 -468
108 -417 439 -731 866 -823 101 -22 332 -25 425 -5 656 138 1050 764 880 1400
-117 437 -497 764 -950 820 -87 11 -187 12 -250 4z m234 -374 c160 -25 286
-92 406 -213 138 -138 207 -311 207 -511 0 -123 -20 -214 -72 -320 -207 -426
-760 -545 -1128 -241 -251 206 -334 580 -193 871 146 304 454 467 780 414z"/>
</g>
</svg>
